<svg fill="none" height="24" viewBox="0 0 39 24" width="39" xmlns="http://www.w3.org/2000/svg"><path clip-rule="evenodd" d="m.600098 1.8c0-.47739.189642-.935227.527212-1.272792.33756-.337566.7954-.527208 1.27279-.527208h34.8c.4774 0 .9352.189642 1.2728.527208.3376.337565.5272.795402.5272 1.272792s-.1896.93523-.5272 1.27279c-.3376.33757-.7954.52721-1.2728.52721h-34.8c-.47739 0-.93523-.18964-1.27279-.52721-.33757-.33756-.527212-.7954-.527212-1.27279zm0 10.2c0-.4774.189642-.9352.527212-1.2728.33756-.3376.7954-.5272 1.27279-.5272h34.8c.4774 0 .9352.1896 1.2728.5272s.5272.7954.5272 1.2728-.1896.9352-.5272 1.2728-.7954.5272-1.2728.5272h-34.8c-.47739 0-.93523-.1896-1.27279-.5272-.33757-.3376-.527212-.7954-.527212-1.2728zm1.800002 8.4c-.47739 0-.93523.1896-1.27279.5272-.33757.3376-.527212.7954-.527212 1.2728s.189642.9352.527212 1.2728c.33756.3376.7954.5272 1.27279.5272h34.8c.4774 0 .9352-.1896 1.2728-.5272s.5272-.7954.5272-1.2728-.1896-.9352-.5272-1.2728-.7954-.5272-1.2728-.5272z" fill="#fff" fill-rule="evenodd"/></svg>